<mxfile host="app.diagrams.net" modified="2020-04-17T08:11:52.801Z" agent="5.0 (X11)" etag="zr1cLsTBpdkfXJiuXhlz" version="12.9.14" type="github">
  <diagram id="6a731a19-8d31-9384-78a2-239565b7b9f0" name="Page-1">
    <mxGraphModel dx="1351" dy="626" grid="1" gridSize="10" guides="1" tooltips="1" connect="1" arrows="1" fold="1" page="1" pageScale="1" pageWidth="1169" pageHeight="827" background="#ffffff" math="0" shadow="0">
      <root>
        <mxCell id="0" />
        <mxCell id="1" parent="0" />
        <mxCell id="2" value="query" style="shape=mxgraph.flowchart.terminator;strokeWidth=2;gradientColor=none;gradientDirection=north;fontStyle=0;html=1;" parent="1" vertex="1">
          <mxGeometry x="314" y="66" width="120" height="30" as="geometry" />
        </mxCell>
        <mxCell id="7" style="fontStyle=1;strokeColor=#003366;strokeWidth=1;html=1;" parent="1" source="2" edge="1">
          <mxGeometry relative="1" as="geometry">
            <mxPoint x="374" y="136" as="targetPoint" />
          </mxGeometry>
        </mxCell>
        <mxCell id="24" value="late&#xa;project&#xa;changes?" style="shape=mxgraph.flowchart.decision;strokeWidth=2;gradientColor=none;gradientDirection=north;fontStyle=0;html=1;" parent="1" vertex="1">
          <mxGeometry x="261.5" y="1080" width="119" height="78.5" as="geometry" />
        </mxCell>
        <mxCell id="27" value="yes" style="text;fontStyle=0;html=1;strokeColor=none;gradientColor=none;fillColor=none;strokeWidth=2;" parent="1" vertex="1">
          <mxGeometry x="280" y="1158.5" width="40" height="26" as="geometry" />
        </mxCell>
        <mxCell id="28" value="investor&#xa;disapproves&#xa; investment?" style="shape=mxgraph.flowchart.decision;strokeWidth=2;gradientColor=none;gradientDirection=north;fontStyle=0;html=1;" parent="1" vertex="1">
          <mxGeometry x="255" y="1210" width="130" height="100" as="geometry" />
        </mxCell>
        <mxCell id="29" value="agreement?" style="shape=mxgraph.flowchart.decision;strokeWidth=2;gradientColor=none;gradientDirection=north;fontStyle=0;html=1;" parent="1" vertex="1">
          <mxGeometry x="510" y="1210" width="130" height="100" as="geometry" />
        </mxCell>
        <mxCell id="30" value="" style="edgeStyle=elbowEdgeStyle;elbow=horizontal;exitX=0.5;exitY=1;exitPerimeter=0;fontStyle=1;strokeColor=#003366;strokeWidth=1;html=1;" parent="1" source="24" target="28" edge="1">
          <mxGeometry width="100" height="100" as="geometry">
            <mxPoint y="100" as="sourcePoint" />
            <mxPoint x="100" as="targetPoint" />
          </mxGeometry>
        </mxCell>
        <mxCell id="31" value="" style="edgeStyle=elbowEdgeStyle;elbow=horizontal;exitX=1;exitY=0.5;exitPerimeter=0;entryX=0;entryY=0.5;entryPerimeter=0;fontStyle=1;strokeColor=#003366;strokeWidth=1;html=1;" parent="1" source="28" target="29" edge="1">
          <mxGeometry width="100" height="100" as="geometry">
            <mxPoint y="100" as="sourcePoint" />
            <mxPoint x="100" as="targetPoint" />
          </mxGeometry>
        </mxCell>
        <mxCell id="32" value="terminate&#xa;contract&#xa;" style="shape=mxgraph.flowchart.merge_or_storage;strokeWidth=2;gradientColor=none;gradientDirection=north;fontStyle=0;html=1;" parent="1" vertex="1">
          <mxGeometry x="760" y="1300" width="130" height="80.5" as="geometry" />
        </mxCell>
        <mxCell id="33" value="" style="edgeStyle=elbowEdgeStyle;elbow=vertical;exitX=1;exitY=0.5;exitPerimeter=0;entryX=0.5;entryY=0;entryPerimeter=0;fontStyle=1;strokeColor=#003366;strokeWidth=1;html=1;" parent="1" source="29" target="32" edge="1">
          <mxGeometry width="100" height="100" as="geometry">
            <mxPoint y="100" as="sourcePoint" />
            <mxPoint x="100" as="targetPoint" />
            <Array as="points">
              <mxPoint x="740" y="1260" />
            </Array>
          </mxGeometry>
        </mxCell>
        <mxCell id="34" value="create&#xa;status&#xa;report" style="shape=mxgraph.flowchart.data;strokeWidth=2;gradientColor=none;gradientDirection=north;fontStyle=0;html=1;" parent="1" vertex="1">
          <mxGeometry x="240.5" y="1490" width="159" height="80" as="geometry" />
        </mxCell>
        <mxCell id="35" value="" style="edgeStyle=elbowEdgeStyle;elbow=vertical;exitX=0.5;exitY=1;exitPerimeter=0;fontColor=#001933;fontStyle=1;strokeColor=#003366;strokeWidth=1;html=1;" parent="1" source="28" target="34" edge="1">
          <mxGeometry width="100" height="100" as="geometry">
            <mxPoint y="100" as="sourcePoint" />
            <mxPoint x="100" as="targetPoint" />
          </mxGeometry>
        </mxCell>
        <mxCell id="36" value="" style="edgeStyle=elbowEdgeStyle;elbow=vertical;exitX=0.5;exitY=1;exitPerimeter=0;entryX=0.5;entryY=0;entryPerimeter=0;fontStyle=1;strokeColor=#003366;strokeWidth=1;html=1;" parent="1" source="29" target="34" edge="1">
          <mxGeometry width="100" height="100" as="geometry">
            <mxPoint y="100" as="sourcePoint" />
            <mxPoint x="100" as="targetPoint" />
          </mxGeometry>
        </mxCell>
        <mxCell id="37" value="project&#xa;complete?" style="shape=mxgraph.flowchart.decision;strokeWidth=2;gradientColor=none;gradientDirection=north;fontStyle=0;html=1;" parent="1" vertex="1">
          <mxGeometry x="271" y="1621.5" width="98" height="57" as="geometry" />
        </mxCell>
        <mxCell id="38" value="create&#xa;final&#xa;report" style="shape=mxgraph.flowchart.data;strokeWidth=2;gradientColor=none;gradientDirection=north;fontStyle=0;html=1;" parent="1" vertex="1">
          <mxGeometry x="240.5" y="1730" width="159" height="80" as="geometry" />
        </mxCell>
        <mxCell id="39" value="issue&#xa;bill of works" style="shape=mxgraph.flowchart.predefined_process;strokeWidth=2;gradientColor=none;gradientDirection=north;fontStyle=0;html=1;" parent="1" vertex="1">
          <mxGeometry x="560" y="1725" width="190" height="90" as="geometry" />
        </mxCell>
        <mxCell id="40" value="end" style="shape=mxgraph.flowchart.terminator;strokeWidth=2;gradientColor=none;gradientDirection=north;fontStyle=0;html=1;" parent="1" vertex="1">
          <mxGeometry x="260" y="1910" width="120" height="30" as="geometry" />
        </mxCell>
        <mxCell id="41" value="" style="edgeStyle=elbowEdgeStyle;elbow=vertical;exitX=0.5;exitY=1;exitPerimeter=0;entryX=0.5;entryY=0;entryPerimeter=0;fontStyle=1;strokeColor=#003366;strokeWidth=1;html=1;" parent="1" source="34" target="37" edge="1">
          <mxGeometry width="100" height="100" as="geometry">
            <mxPoint y="100" as="sourcePoint" />
            <mxPoint x="100" as="targetPoint" />
          </mxGeometry>
        </mxCell>
        <mxCell id="42" value="" style="edgeStyle=elbowEdgeStyle;elbow=vertical;exitX=0.5;exitY=1;exitPerimeter=0;entryX=0.5;entryY=0;entryPerimeter=0;fontStyle=1;strokeColor=#003366;strokeWidth=1;html=1;" parent="1" source="37" target="38" edge="1">
          <mxGeometry width="100" height="100" as="geometry">
            <mxPoint y="100" as="sourcePoint" />
            <mxPoint x="100" as="targetPoint" />
          </mxGeometry>
        </mxCell>
        <mxCell id="43" value="" style="edgeStyle=elbowEdgeStyle;elbow=vertical;exitX=0.5;exitY=1;exitPerimeter=0;entryX=0.5;entryY=0;entryPerimeter=0;fontStyle=1;strokeColor=#003366;strokeWidth=1;html=1;" parent="1" source="38" target="40" edge="1">
          <mxGeometry width="100" height="100" as="geometry">
            <mxPoint y="100" as="sourcePoint" />
            <mxPoint x="100" as="targetPoint" />
          </mxGeometry>
        </mxCell>
        <mxCell id="44" value="" style="edgeStyle=elbowEdgeStyle;elbow=vertical;exitX=0.905;exitY=0.5;exitPerimeter=0;entryX=0;entryY=0.5;entryPerimeter=0;fontStyle=1;strokeColor=#003366;strokeWidth=1;html=1;" parent="1" source="38" target="39" edge="1">
          <mxGeometry width="100" height="100" as="geometry">
            <mxPoint y="100" as="sourcePoint" />
            <mxPoint x="100" as="targetPoint" />
          </mxGeometry>
        </mxCell>
        <mxCell id="45" value="" style="edgeStyle=elbowEdgeStyle;elbow=horizontal;exitX=1;exitY=0.5;exitPerimeter=0;entryX=0.905;entryY=0.5;entryPerimeter=0;fontStyle=1;strokeColor=#003366;strokeWidth=1;html=1;" parent="1" source="24" target="34" edge="1">
          <mxGeometry width="100" height="100" as="geometry">
            <mxPoint y="100" as="sourcePoint" />
            <mxPoint x="100" as="targetPoint" />
            <Array as="points">
              <mxPoint x="950" y="1320" />
            </Array>
          </mxGeometry>
        </mxCell>
        <mxCell id="46" value="no" style="text;fontStyle=0;html=1;strokeColor=none;gradientColor=none;fillColor=none;strokeWidth=2;" parent="1" vertex="1">
          <mxGeometry x="380.5" y="1093.25" width="40" height="26" as="geometry" />
        </mxCell>
        <mxCell id="47" value="yes" style="text;fontColor=#001933;fontStyle=0;html=1;strokeColor=none;gradientColor=none;fillColor=none;strokeWidth=2;" parent="1" vertex="1">
          <mxGeometry x="385" y="1234" width="40" height="26" as="geometry" />
        </mxCell>
        <mxCell id="48" value="no" style="text;fontColor=#001933;fontStyle=0;html=1;strokeColor=none;gradientColor=none;fillColor=none;strokeWidth=2;align=center;" parent="1" vertex="1">
          <mxGeometry x="320" y="1310" width="40" height="26" as="geometry" />
        </mxCell>
        <mxCell id="49" value="yes" style="text;fontColor=#001933;fontStyle=0;html=1;strokeColor=none;gradientColor=none;fillColor=none;strokeWidth=2;align=center;" parent="1" vertex="1">
          <mxGeometry x="575" y="1310" width="40" height="26" as="geometry" />
        </mxCell>
        <mxCell id="50" value="no" style="text;fontColor=#001933;fontStyle=0;html=1;strokeColor=none;gradientColor=none;fillColor=none;strokeWidth=2;" parent="1" vertex="1">
          <mxGeometry x="640" y="1234" width="40" height="26" as="geometry" />
        </mxCell>
        <mxCell id="53" value="yes" style="text;fontStyle=0;html=1;strokeColor=none;gradientColor=none;fillColor=none;strokeWidth=2;align=center;" parent="1" vertex="1">
          <mxGeometry x="321" y="1680" width="40" height="26" as="geometry" />
        </mxCell>
        <mxCell id="55" value="no" style="text;fontStyle=0;html=1;strokeColor=none;gradientColor=none;fillColor=none;strokeWidth=2;" parent="1" vertex="1">
          <mxGeometry x="235" y="1624" width="40" height="26" as="geometry" />
        </mxCell>
        <mxCell id="DeQYzKl8hpYWnKMHrlFA-61" value="" style="edgeStyle=orthogonalEdgeStyle;rounded=0;orthogonalLoop=1;jettySize=auto;html=1;entryX=0.417;entryY=0;entryDx=0;entryDy=0;entryPerimeter=0;" parent="1" source="DeQYzKl8hpYWnKMHrlFA-55" target="DeQYzKl8hpYWnKMHrlFA-59" edge="1">
          <mxGeometry relative="1" as="geometry">
            <mxPoint x="214" y="166" as="targetPoint" />
            <Array as="points">
              <mxPoint x="214" y="166" />
            </Array>
          </mxGeometry>
        </mxCell>
        <mxCell id="DeQYzKl8hpYWnKMHrlFA-55" value="center（rerank）" style="rounded=0;whiteSpace=wrap;html=1;" parent="1" vertex="1">
          <mxGeometry x="314" y="136" width="120" height="60" as="geometry" />
        </mxCell>
        <mxCell id="DeQYzKl8hpYWnKMHrlFA-70" value="" style="edgeStyle=orthogonalEdgeStyle;rounded=0;orthogonalLoop=1;jettySize=auto;html=1;" parent="1" source="DeQYzKl8hpYWnKMHrlFA-57" target="DeQYzKl8hpYWnKMHrlFA-69" edge="1">
          <mxGeometry relative="1" as="geometry">
            <Array as="points">
              <mxPoint x="644" y="416" />
              <mxPoint x="474" y="416" />
            </Array>
          </mxGeometry>
        </mxCell>
        <mxCell id="DeQYzKl8hpYWnKMHrlFA-72" value="" style="edgeStyle=orthogonalEdgeStyle;rounded=0;orthogonalLoop=1;jettySize=auto;html=1;" parent="1" source="DeQYzKl8hpYWnKMHrlFA-57" target="DeQYzKl8hpYWnKMHrlFA-71" edge="1">
          <mxGeometry relative="1" as="geometry" />
        </mxCell>
        <mxCell id="DeQYzKl8hpYWnKMHrlFA-125" value="" style="edgeStyle=orthogonalEdgeStyle;rounded=0;orthogonalLoop=1;jettySize=auto;html=1;" parent="1" source="DeQYzKl8hpYWnKMHrlFA-57" edge="1">
          <mxGeometry relative="1" as="geometry">
            <mxPoint x="390" y="200" as="targetPoint" />
          </mxGeometry>
        </mxCell>
        <mxCell id="DeQYzKl8hpYWnKMHrlFA-57" value="DM3（非闲聊）" style="rounded=0;whiteSpace=wrap;html=1;" parent="1" vertex="1">
          <mxGeometry x="589" y="296" width="120" height="60" as="geometry" />
        </mxCell>
        <mxCell id="DeQYzKl8hpYWnKMHrlFA-77" value="" style="edgeStyle=orthogonalEdgeStyle;rounded=0;orthogonalLoop=1;jettySize=auto;html=1;" parent="1" source="DeQYzKl8hpYWnKMHrlFA-71" edge="1">
          <mxGeometry relative="1" as="geometry">
            <mxPoint x="804" y="456" as="targetPoint" />
          </mxGeometry>
        </mxCell>
        <mxCell id="DeQYzKl8hpYWnKMHrlFA-71" value="&lt;div&gt;adapter&lt;/div&gt;（图数据库）" style="rounded=0;whiteSpace=wrap;html=1;" parent="1" vertex="1">
          <mxGeometry x="744" y="296" width="120" height="60" as="geometry" />
        </mxCell>
        <mxCell id="DeQYzKl8hpYWnKMHrlFA-78" style="edgeStyle=orthogonalEdgeStyle;rounded=0;orthogonalLoop=1;jettySize=auto;html=1;" parent="1" edge="1">
          <mxGeometry relative="1" as="geometry">
            <mxPoint x="694" y="356" as="targetPoint" />
            <mxPoint x="744" y="486" as="sourcePoint" />
          </mxGeometry>
        </mxCell>
        <mxCell id="DeQYzKl8hpYWnKMHrlFA-76" value="NLG" style="rounded=0;whiteSpace=wrap;html=1;" parent="1" vertex="1">
          <mxGeometry x="744" y="456" width="120" height="60" as="geometry" />
        </mxCell>
        <mxCell id="DeQYzKl8hpYWnKMHrlFA-74" value="" style="edgeStyle=orthogonalEdgeStyle;rounded=0;orthogonalLoop=1;jettySize=auto;html=1;" parent="1" source="DeQYzKl8hpYWnKMHrlFA-69" edge="1">
          <mxGeometry relative="1" as="geometry">
            <mxPoint x="674" y="356" as="targetPoint" />
            <Array as="points">
              <mxPoint x="674" y="486" />
              <mxPoint x="674" y="486" />
            </Array>
          </mxGeometry>
        </mxCell>
        <mxCell id="DeQYzKl8hpYWnKMHrlFA-69" value="NLU(意图、槽位)" style="rounded=0;whiteSpace=wrap;html=1;" parent="1" vertex="1">
          <mxGeometry x="414" y="456" width="120" height="60" as="geometry" />
        </mxCell>
        <mxCell id="DeQYzKl8hpYWnKMHrlFA-80" value="" style="edgeStyle=orthogonalEdgeStyle;rounded=0;orthogonalLoop=1;jettySize=auto;html=1;" parent="1" source="DeQYzKl8hpYWnKMHrlFA-59" target="DeQYzKl8hpYWnKMHrlFA-79" edge="1">
          <mxGeometry relative="1" as="geometry">
            <Array as="points">
              <mxPoint x="224" y="346" />
              <mxPoint x="224" y="346" />
            </Array>
          </mxGeometry>
        </mxCell>
        <mxCell id="DeQYzKl8hpYWnKMHrlFA-123" value="" style="edgeStyle=orthogonalEdgeStyle;rounded=0;orthogonalLoop=1;jettySize=auto;html=1;" parent="1" source="DeQYzKl8hpYWnKMHrlFA-59" edge="1">
          <mxGeometry relative="1" as="geometry">
            <mxPoint x="330" y="200" as="targetPoint" />
            <Array as="points">
              <mxPoint x="330" y="290" />
            </Array>
          </mxGeometry>
        </mxCell>
        <mxCell id="DeQYzKl8hpYWnKMHrlFA-59" value="DM1（闲聊类）" style="rounded=0;whiteSpace=wrap;html=1;" parent="1" vertex="1">
          <mxGeometry x="164" y="276" width="120" height="60" as="geometry" />
        </mxCell>
        <mxCell id="DeQYzKl8hpYWnKMHrlFA-108" value="" style="edgeStyle=orthogonalEdgeStyle;rounded=0;orthogonalLoop=1;jettySize=auto;html=1;" parent="1" source="DeQYzKl8hpYWnKMHrlFA-79" target="DeQYzKl8hpYWnKMHrlFA-107" edge="1">
          <mxGeometry relative="1" as="geometry" />
        </mxCell>
        <mxCell id="DeQYzKl8hpYWnKMHrlFA-110" value="" style="edgeStyle=orthogonalEdgeStyle;rounded=0;orthogonalLoop=1;jettySize=auto;html=1;" parent="1" source="DeQYzKl8hpYWnKMHrlFA-79" target="DeQYzKl8hpYWnKMHrlFA-109" edge="1">
          <mxGeometry relative="1" as="geometry">
            <Array as="points">
              <mxPoint x="224" y="440" />
              <mxPoint x="324" y="440" />
            </Array>
          </mxGeometry>
        </mxCell>
        <mxCell id="DeQYzKl8hpYWnKMHrlFA-79" value="classify" style="rounded=0;whiteSpace=wrap;html=1;" parent="1" vertex="1">
          <mxGeometry x="164" y="360" width="120" height="60" as="geometry" />
        </mxCell>
        <mxCell id="DeQYzKl8hpYWnKMHrlFA-114" value="" style="edgeStyle=orthogonalEdgeStyle;rounded=0;orthogonalLoop=1;jettySize=auto;html=1;entryX=1;entryY=0.5;entryDx=0;entryDy=0;" parent="1" source="DeQYzKl8hpYWnKMHrlFA-109" target="DeQYzKl8hpYWnKMHrlFA-59" edge="1">
          <mxGeometry relative="1" as="geometry">
            <mxPoint x="344" y="376" as="targetPoint" />
            <Array as="points">
              <mxPoint x="344" y="306" />
            </Array>
          </mxGeometry>
        </mxCell>
        <mxCell id="DeQYzKl8hpYWnKMHrlFA-109" value="深度学习生成式" style="rounded=0;whiteSpace=wrap;html=1;" parent="1" vertex="1">
          <mxGeometry x="264" y="456" width="120" height="60" as="geometry" />
        </mxCell>
        <mxCell id="DeQYzKl8hpYWnKMHrlFA-112" value="" style="edgeStyle=orthogonalEdgeStyle;rounded=0;orthogonalLoop=1;jettySize=auto;html=1;entryX=0;entryY=0.5;entryDx=0;entryDy=0;" parent="1" source="DeQYzKl8hpYWnKMHrlFA-107" target="DeQYzKl8hpYWnKMHrlFA-59" edge="1">
          <mxGeometry relative="1" as="geometry">
            <mxPoint x="154" y="306" as="targetPoint" />
            <Array as="points">
              <mxPoint x="74" y="486" />
              <mxPoint x="74" y="306" />
            </Array>
          </mxGeometry>
        </mxCell>
        <mxCell id="DeQYzKl8hpYWnKMHrlFA-107" value="深度学习语义匹配模块" style="rounded=0;whiteSpace=wrap;html=1;" parent="1" vertex="1">
          <mxGeometry x="104" y="456" width="120" height="60" as="geometry" />
        </mxCell>
        <mxCell id="DeQYzKl8hpYWnKMHrlFA-64" value="" style="edgeStyle=orthogonalEdgeStyle;rounded=0;orthogonalLoop=1;jettySize=auto;html=1;entryX=0.5;entryY=0;entryDx=0;entryDy=0;" parent="1" source="DeQYzKl8hpYWnKMHrlFA-55" target="DeQYzKl8hpYWnKMHrlFA-57" edge="1">
          <mxGeometry relative="1" as="geometry">
            <mxPoint x="514" y="166" as="targetPoint" />
            <Array as="points">
              <mxPoint x="649" y="166" />
            </Array>
          </mxGeometry>
        </mxCell>
      </root>
    </mxGraphModel>
  </diagram>
</mxfile>
